<svg xmlns="http://www.w3.org/2000/svg" xmlns:xlink="http://www.w3.org/1999/xlink" width="500" zoomAndPan="magnify" viewBox="0 0 375 374.999991" height="500" preserveAspectRatio="xMidYMid meet" version="1.0"><defs><g/><clipPath id="9ea2e4ed53"><path d="M 111 184 L 309.0625 184 L 309.0625 252.820312 L 111 252.820312 Z M 111 184 " clip-rule="nonzero"/></clipPath><clipPath id="07e21f0767"><path d="M 66.0625 122.367188 L 265 122.367188 L 265 191 L 66.0625 191 Z M 66.0625 122.367188 " clip-rule="nonzero"/></clipPath></defs><rect x="-37.5" width="450" fill="#ffffff" y="-37.499999" height="449.999989" fill-opacity="1"/><rect x="-37.5" width="450" fill="#ffffff" y="-37.499999" height="449.999989" fill-opacity="1"/><rect x="-37.5" width="450" fill="#000000" y="-37.499999" height="449.999989" fill-opacity="1"/><g fill="#ffffff" fill-opacity="1"><g transform="translate(68.473383, 103.714769)"><g><path d="M 29.171875 0 L 24.828125 0 L 18.859375 -19.609375 L 12.828125 0 L 8.4375 0 L 0.109375 -25.140625 L 4.671875 -25.140625 L 10.78125 -4.703125 L 16.84375 -25.109375 L 21.015625 -25.140625 L 27.125 -4.703125 L 33.1875 -25.140625 L 37.578125 -25.140625 Z M 29.171875 0 "/></g></g></g><g fill="#ffffff" fill-opacity="1"><g transform="translate(107.501815, 103.714769)"><g><path d="M 21.265625 -21.34375 L 7.546875 -21.34375 L 7.546875 -14.546875 L 19.828125 -14.546875 L 19.828125 -10.734375 L 7.546875 -10.734375 L 7.546875 -3.8125 L 21.703125 -3.8125 L 21.703125 0 L 3.3125 0 L 3.3125 -25.140625 L 21.265625 -25.140625 Z M 21.265625 -21.34375 "/></g></g></g><g fill="#ffffff" fill-opacity="1"><g transform="translate(132.88671, 103.714769)"><g><path d="M 3.3125 -25.140625 L 14.21875 -25.140625 C 16.832031 -25.140625 18.894531 -24.582031 20.40625 -23.46875 C 21.914062 -22.351562 22.671875 -20.816406 22.671875 -18.859375 C 22.671875 -17.441406 22.273438 -16.238281 21.484375 -15.25 C 20.691406 -14.257812 19.613281 -13.59375 18.25 -13.25 C 19.925781 -12.96875 21.242188 -12.265625 22.203125 -11.140625 C 23.160156 -10.015625 23.640625 -8.597656 23.640625 -6.890625 C 23.640625 -4.734375 22.820312 -3.046875 21.1875 -1.828125 C 19.5625 -0.609375 17.320312 0 14.46875 0 L 3.3125 0 Z M 7.546875 -21.375 L 7.546875 -14.734375 L 14.015625 -14.734375 C 15.347656 -14.734375 16.394531 -15.03125 17.15625 -15.625 C 17.925781 -16.226562 18.3125 -17.054688 18.3125 -18.109375 C 18.3125 -19.160156 17.9375 -19.96875 17.1875 -20.53125 C 16.4375 -21.09375 15.378906 -21.375 14.015625 -21.375 Z M 7.546875 -10.984375 L 7.546875 -3.765625 L 14.015625 -3.765625 C 15.691406 -3.765625 16.988281 -4.082031 17.90625 -4.71875 C 18.832031 -5.351562 19.296875 -6.257812 19.296875 -7.4375 C 19.296875 -8.539062 18.828125 -9.40625 17.890625 -10.03125 C 16.953125 -10.664062 15.660156 -10.984375 14.015625 -10.984375 Z M 7.546875 -10.984375 "/></g></g></g><g fill="#ffffff" fill-opacity="1"><g transform="translate(160.066807, 103.714769)"><g><path d="M 11.03125 -9.515625 L 2.1875 -9.515625 L 2.1875 -12.359375 L 11.03125 -12.359375 Z M 11.03125 -9.515625 "/></g></g></g><g fill="#ffffff" fill-opacity="1"><g transform="translate(175.111326, 103.714769)"><g><path d="M 21.265625 -21.34375 L 7.546875 -21.34375 L 7.546875 -14.546875 L 19.828125 -14.546875 L 19.828125 -10.734375 L 7.546875 -10.734375 L 7.546875 -3.8125 L 21.703125 -3.8125 L 21.703125 0 L 3.3125 0 L 3.3125 -25.140625 L 21.265625 -25.140625 Z M 21.265625 -21.34375 "/></g></g></g><g fill="#ffffff" fill-opacity="1"><g transform="translate(200.496214, 103.714769)"><g><path d="M 11.03125 -9.515625 L 2.1875 -9.515625 L 2.1875 -12.359375 L 11.03125 -12.359375 Z M 11.03125 -9.515625 "/></g></g></g><g fill="#ffffff" fill-opacity="1"><g transform="translate(215.540726, 103.714769)"><g><path d="M 14.4375 -25.25 C 16.207031 -25.25 17.9375 -24.90625 19.625 -24.21875 C 21.3125 -23.539062 22.769531 -22.59375 24 -21.375 L 21.515625 -18.28125 C 20.609375 -19.257812 19.53125 -20.035156 18.28125 -20.609375 C 17.039062 -21.191406 15.785156 -21.484375 14.515625 -21.484375 C 11.992188 -21.484375 9.863281 -20.625 8.125 -18.90625 C 6.394531 -17.195312 5.53125 -15.109375 5.53125 -12.640625 C 5.53125 -10.148438 6.394531 -8.046875 8.125 -6.328125 C 9.863281 -4.617188 11.992188 -3.765625 14.515625 -3.765625 C 17.117188 -3.765625 19.453125 -4.757812 21.515625 -6.75 L 24.03125 -3.953125 C 22.738281 -2.679688 21.226562 -1.675781 19.5 -0.9375 C 17.78125 -0.195312 16.046875 0.171875 14.296875 0.171875 C 10.609375 0.171875 7.503906 -1.050781 4.984375 -3.5 C 2.472656 -5.957031 1.21875 -8.992188 1.21875 -12.609375 C 1.21875 -16.171875 2.492188 -19.164062 5.046875 -21.59375 C 7.597656 -24.03125 10.726562 -25.25 14.4375 -25.25 Z M 14.4375 -25.25 "/></g></g></g><g fill="#ffffff" fill-opacity="1"><g transform="translate(242.397676, 103.714769)"><g><path d="M 5.0625 -21.59375 C 7.625 -24.03125 10.785156 -25.25 14.546875 -25.25 C 18.304688 -25.25 21.46875 -24.03125 24.03125 -21.59375 C 26.59375 -19.164062 27.875 -16.15625 27.875 -12.5625 C 27.875 -8.976562 26.59375 -5.957031 24.03125 -3.5 C 21.46875 -1.050781 18.304688 0.171875 14.546875 0.171875 C 10.785156 0.171875 7.625 -1.050781 5.0625 -3.5 C 2.5 -5.957031 1.21875 -8.976562 1.21875 -12.5625 C 1.21875 -16.15625 2.5 -19.164062 5.0625 -21.59375 Z M 14.578125 -21.453125 C 12.085938 -21.453125 9.957031 -20.59375 8.1875 -18.875 C 6.414062 -17.164062 5.53125 -15.066406 5.53125 -12.578125 C 5.53125 -10.085938 6.421875 -7.972656 8.203125 -6.234375 C 9.992188 -4.492188 12.117188 -3.625 14.578125 -3.625 C 17.046875 -3.625 19.15625 -4.492188 20.90625 -6.234375 C 22.65625 -7.972656 23.53125 -10.085938 23.53125 -12.578125 C 23.53125 -15.066406 22.65625 -17.164062 20.90625 -18.875 C 19.15625 -20.59375 17.046875 -21.453125 14.578125 -21.453125 Z M 14.578125 -21.453125 "/></g></g></g><g fill="#ffffff" fill-opacity="1"><g transform="translate(273.311789, 103.714769)"><g><path d="M 29.890625 0 L 25.96875 0 L 25.9375 -18.78125 L 18 -2.625 L 15.234375 -2.625 L 7.296875 -18.78125 L 7.296875 0 L 3.3125 0 L 3.3125 -25.140625 L 8.328125 -25.140625 L 16.625 -8.4375 L 24.890625 -25.140625 L 29.890625 -25.140625 Z M 29.890625 0 "/></g></g></g><g clip-path="url(#9ea2e4ed53)"><path fill="#ffffff" d="M 185.046875 230.234375 C 155.980469 230.234375 129.734375 212.484375 111.023438 195.144531 C 126.445312 214.082031 163.238281 252.804688 206.167969 252.804688 C 262.996094 252.804688 309.0625 184.960938 309.0625 184.960938 L 269.328125 184.960938 C 250.71875 204.699219 219.90625 230.234375 185.046875 230.234375 " fill-opacity="1" fill-rule="nonzero"/></g><g clip-path="url(#07e21f0767)"><path fill="#ffffff" d="M 190.082031 144.910156 C 219.144531 144.910156 245.390625 162.65625 264.105469 179.996094 C 248.679688 161.058594 211.890625 122.339844 168.957031 122.339844 C 112.128906 122.339844 66.0625 190.183594 66.0625 190.183594 L 105.796875 190.183594 C 124.40625 170.441406 155.21875 144.910156 190.082031 144.910156 " fill-opacity="1" fill-rule="nonzero"/></g><path fill="#ffffff" d="M 200.589844 157.945312 C 202.902344 160.070312 204.355469 163.125 204.355469 166.515625 C 204.355469 172.941406 199.148438 178.148438 192.730469 178.148438 C 186.308594 178.148438 181.101562 172.941406 181.101562 166.515625 C 181.101562 160.089844 186.308594 154.882812 192.730469 154.882812 C 192.867188 154.882812 193 154.886719 193.140625 154.890625 C 190.265625 154.101562 187.238281 153.671875 184.117188 153.671875 C 165.394531 153.671875 150.214844 168.863281 150.214844 187.597656 C 150.214844 206.335938 165.394531 221.523438 184.117188 221.523438 C 202.839844 221.523438 218.015625 206.335938 218.015625 187.597656 C 218.015625 174.84375 210.984375 163.738281 200.589844 157.945312 " fill-opacity="1" fill-rule="nonzero"/><g fill="#ffffff" fill-opacity="1"><g transform="translate(47.993812, 276.870995)"><g><path d="M 1.3125 0 L 1.3125 -11.3125 L 4.5 -11.3125 C 5.488281 -11.3125 6.359375 -11.09375 7.109375 -10.65625 C 7.867188 -10.21875 8.453125 -9.597656 8.859375 -8.796875 C 9.273438 -7.992188 9.484375 -7.070312 9.484375 -6.03125 L 9.484375 -5.3125 C 9.484375 -4.25 9.273438 -3.316406 8.859375 -2.515625 C 8.453125 -1.710938 7.867188 -1.09375 7.109375 -0.65625 C 6.347656 -0.226562 5.457031 -0.0078125 4.4375 0 Z M 2.796875 -10.078125 L 2.796875 -1.21875 L 4.375 -1.21875 C 5.519531 -1.21875 6.410156 -1.570312 7.046875 -2.28125 C 7.691406 -3 8.015625 -4.019531 8.015625 -5.34375 L 8.015625 -6 C 8.015625 -7.289062 7.710938 -8.289062 7.109375 -9 C 6.503906 -9.707031 5.648438 -10.066406 4.546875 -10.078125 Z M 2.796875 -10.078125 "/></g></g></g><g fill="#ffffff" fill-opacity="1"><g transform="translate(62.135649, 276.870995)"><g><path d="M 7.703125 -5.234375 L 2.796875 -5.234375 L 2.796875 -1.21875 L 8.5 -1.21875 L 8.5 0 L 1.3125 0 L 1.3125 -11.3125 L 8.421875 -11.3125 L 8.421875 -10.078125 L 2.796875 -10.078125 L 2.796875 -6.453125 L 7.703125 -6.453125 Z M 7.703125 -5.234375 "/></g></g></g><g fill="#ffffff" fill-opacity="1"><g transform="translate(74.886914, 276.870995)"><g><path d="M 5.0625 -1.984375 L 8.28125 -11.3125 L 9.921875 -11.3125 L 5.71875 0 L 4.40625 0 L 0.21875 -11.3125 L 1.84375 -11.3125 Z M 5.0625 -1.984375 "/></g></g></g><g fill="#ffffff" fill-opacity="1"><g transform="translate(88.718007, 276.870995)"><g><path d="M 7.703125 -5.234375 L 2.796875 -5.234375 L 2.796875 -1.21875 L 8.5 -1.21875 L 8.5 0 L 1.3125 0 L 1.3125 -11.3125 L 8.421875 -11.3125 L 8.421875 -10.078125 L 2.796875 -10.078125 L 2.796875 -6.453125 L 7.703125 -6.453125 Z M 7.703125 -5.234375 "/></g></g></g><g fill="#ffffff" fill-opacity="1"><g transform="translate(101.469273, 276.870995)"><g><path d="M 2.8125 -1.21875 L 8.171875 -1.21875 L 8.171875 0 L 1.3125 0 L 1.3125 -11.3125 L 2.8125 -11.3125 Z M 2.8125 -1.21875 "/></g></g></g><g fill="#ffffff" fill-opacity="1"><g transform="translate(113.738887, 276.870995)"><g><path d="M 10.015625 -5.296875 C 10.015625 -4.179688 9.828125 -3.210938 9.453125 -2.390625 C 9.078125 -1.566406 8.546875 -0.9375 7.859375 -0.5 C 7.179688 -0.0625 6.382812 0.15625 5.46875 0.15625 C 4.582031 0.15625 3.796875 -0.0625 3.109375 -0.5 C 2.421875 -0.9375 1.882812 -1.5625 1.5 -2.375 C 1.125 -3.1875 0.929688 -4.125 0.921875 -5.1875 L 0.921875 -6 C 0.921875 -7.09375 1.109375 -8.054688 1.484375 -8.890625 C 1.859375 -9.722656 2.390625 -10.359375 3.078125 -10.796875 C 3.773438 -11.242188 4.566406 -11.46875 5.453125 -11.46875 C 6.359375 -11.46875 7.15625 -11.25 7.84375 -10.8125 C 8.539062 -10.375 9.078125 -9.738281 9.453125 -8.90625 C 9.828125 -8.070312 10.015625 -7.101562 10.015625 -6 Z M 8.53125 -6.015625 C 8.53125 -7.359375 8.257812 -8.390625 7.71875 -9.109375 C 7.175781 -9.828125 6.421875 -10.1875 5.453125 -10.1875 C 4.515625 -10.1875 3.773438 -9.828125 3.234375 -9.109375 C 2.691406 -8.390625 2.414062 -7.394531 2.40625 -6.125 L 2.40625 -5.296875 C 2.40625 -3.992188 2.675781 -2.96875 3.21875 -2.21875 C 3.757812 -1.476562 4.507812 -1.109375 5.46875 -1.109375 C 6.4375 -1.109375 7.179688 -1.457031 7.703125 -2.15625 C 8.234375 -2.863281 8.507812 -3.875 8.53125 -5.1875 Z M 8.53125 -6.015625 "/></g></g></g><g fill="#ffffff" fill-opacity="1"><g transform="translate(128.385678, 276.870995)"><g><path d="M 2.796875 -4.421875 L 2.796875 0 L 1.3125 0 L 1.3125 -11.3125 L 5.484375 -11.3125 C 6.722656 -11.3125 7.691406 -10.992188 8.390625 -10.359375 C 9.085938 -9.722656 9.4375 -8.890625 9.4375 -7.859375 C 9.4375 -6.753906 9.09375 -5.90625 8.40625 -5.3125 C 7.726562 -4.71875 6.75 -4.421875 5.46875 -4.421875 Z M 2.796875 -5.640625 L 5.484375 -5.640625 C 6.273438 -5.640625 6.882812 -5.828125 7.3125 -6.203125 C 7.738281 -6.578125 7.953125 -7.125 7.953125 -7.84375 C 7.953125 -8.507812 7.738281 -9.046875 7.3125 -9.453125 C 6.882812 -9.859375 6.300781 -10.066406 5.5625 -10.078125 L 2.796875 -10.078125 Z M 2.796875 -5.640625 "/></g></g></g><g fill="#ffffff" fill-opacity="1"><g transform="translate(142.131315, 276.870995)"><g><path d="M 2.796875 -4.421875 L 2.796875 0 L 1.3125 0 L 1.3125 -11.3125 L 5.484375 -11.3125 C 6.722656 -11.3125 7.691406 -10.992188 8.390625 -10.359375 C 9.085938 -9.722656 9.4375 -8.890625 9.4375 -7.859375 C 9.4375 -6.753906 9.09375 -5.90625 8.40625 -5.3125 C 7.726562 -4.71875 6.75 -4.421875 5.46875 -4.421875 Z M 2.796875 -5.640625 L 5.484375 -5.640625 C 6.273438 -5.640625 6.882812 -5.828125 7.3125 -6.203125 C 7.738281 -6.578125 7.953125 -7.125 7.953125 -7.84375 C 7.953125 -8.507812 7.738281 -9.046875 7.3125 -9.453125 C 6.882812 -9.859375 6.300781 -10.066406 5.5625 -10.078125 L 2.796875 -10.078125 Z M 2.796875 -5.640625 "/></g></g></g><g fill="#ffffff" fill-opacity="1"><g transform="translate(155.876953, 276.870995)"><g><path d="M 7.703125 -5.234375 L 2.796875 -5.234375 L 2.796875 -1.21875 L 8.5 -1.21875 L 8.5 0 L 1.3125 0 L 1.3125 -11.3125 L 8.421875 -11.3125 L 8.421875 -10.078125 L 2.796875 -10.078125 L 2.796875 -6.453125 L 7.703125 -6.453125 Z M 7.703125 -5.234375 "/></g></g></g><g fill="#ffffff" fill-opacity="1"><g transform="translate(168.628214, 276.870995)"><g><path d="M 9.28125 -11.3125 L 9.28125 -3.625 C 9.269531 -2.550781 8.929688 -1.675781 8.265625 -1 C 7.597656 -0.320312 6.695312 0.0546875 5.5625 0.140625 L 5.171875 0.15625 C 3.929688 0.15625 2.941406 -0.175781 2.203125 -0.84375 C 1.472656 -1.507812 1.101562 -2.429688 1.09375 -3.609375 L 1.09375 -11.3125 L 2.5625 -11.3125 L 2.5625 -3.65625 C 2.5625 -2.832031 2.785156 -2.191406 3.234375 -1.734375 C 3.691406 -1.285156 4.335938 -1.0625 5.171875 -1.0625 C 6.015625 -1.0625 6.660156 -1.285156 7.109375 -1.734375 C 7.554688 -2.191406 7.78125 -2.828125 7.78125 -3.640625 L 7.78125 -11.3125 Z M 9.28125 -11.3125 "/></g></g></g><g fill="#ffffff" fill-opacity="1"><g transform="translate(182.653519, 276.870995)"><g><path d="M 5.453125 -4.578125 L 2.796875 -4.578125 L 2.796875 0 L 1.3125 0 L 1.3125 -11.3125 L 5.046875 -11.3125 C 6.316406 -11.3125 7.296875 -11.019531 7.984375 -10.4375 C 8.671875 -9.851562 9.015625 -9.007812 9.015625 -7.90625 C 9.015625 -7.195312 8.820312 -6.582031 8.4375 -6.0625 C 8.0625 -5.539062 7.535156 -5.148438 6.859375 -4.890625 L 9.515625 -0.09375 L 9.515625 0 L 7.921875 0 Z M 2.796875 -5.796875 L 5.09375 -5.796875 C 5.832031 -5.796875 6.421875 -5.984375 6.859375 -6.359375 C 7.296875 -6.742188 7.515625 -7.257812 7.515625 -7.90625 C 7.515625 -8.601562 7.304688 -9.140625 6.890625 -9.515625 C 6.472656 -9.890625 5.875 -10.078125 5.09375 -10.078125 L 2.796875 -10.078125 Z M 2.796875 -5.796875 "/></g></g></g><g fill="#ffffff" fill-opacity="1"><g transform="translate(196.158331, 276.870995)"><g/></g></g><g fill="#ffffff" fill-opacity="1"><g transform="translate(203.805645, 276.870995)"><g><path d="M 7.546875 -5 L 2.796875 -5 L 2.796875 0 L 1.3125 0 L 1.3125 -11.3125 L 8.3125 -11.3125 L 8.3125 -10.078125 L 2.796875 -10.078125 L 2.796875 -6.21875 L 7.546875 -6.21875 Z M 7.546875 -5 "/></g></g></g><g fill="#ffffff" fill-opacity="1"><g transform="translate(216.308312, 276.870995)"><g><path d="M 9.28125 -11.3125 L 9.28125 -3.625 C 9.269531 -2.550781 8.929688 -1.675781 8.265625 -1 C 7.597656 -0.320312 6.695312 0.0546875 5.5625 0.140625 L 5.171875 0.15625 C 3.929688 0.15625 2.941406 -0.175781 2.203125 -0.84375 C 1.472656 -1.507812 1.101562 -2.429688 1.09375 -3.609375 L 1.09375 -11.3125 L 2.5625 -11.3125 L 2.5625 -3.65625 C 2.5625 -2.832031 2.785156 -2.191406 3.234375 -1.734375 C 3.691406 -1.285156 4.335938 -1.0625 5.171875 -1.0625 C 6.015625 -1.0625 6.660156 -1.285156 7.109375 -1.734375 C 7.554688 -2.191406 7.78125 -2.828125 7.78125 -3.640625 L 7.78125 -11.3125 Z M 9.28125 -11.3125 "/></g></g></g><g fill="#ffffff" fill-opacity="1"><g transform="translate(230.333618, 276.870995)"><g><path d="M 2.8125 -1.21875 L 8.171875 -1.21875 L 8.171875 0 L 1.3125 0 L 1.3125 -11.3125 L 2.8125 -11.3125 Z M 2.8125 -1.21875 "/></g></g></g><g fill="#ffffff" fill-opacity="1"><g transform="translate(242.603228, 276.870995)"><g><path d="M 2.8125 -1.21875 L 8.171875 -1.21875 L 8.171875 0 L 1.3125 0 L 1.3125 -11.3125 L 2.8125 -11.3125 Z M 2.8125 -1.21875 "/></g></g></g><g fill="#ffffff" fill-opacity="1"><g transform="translate(254.872837, 276.870995)"><g/></g></g><g fill="#ffffff" fill-opacity="1"><g transform="translate(262.520151, 276.870995)"><g><path d="M 4.640625 -5.046875 C 3.359375 -5.410156 2.425781 -5.859375 1.84375 -6.390625 C 1.269531 -6.929688 0.984375 -7.59375 0.984375 -8.375 C 0.984375 -9.269531 1.335938 -10.007812 2.046875 -10.59375 C 2.753906 -11.175781 3.679688 -11.46875 4.828125 -11.46875 C 5.597656 -11.46875 6.285156 -11.316406 6.890625 -11.015625 C 7.503906 -10.710938 7.976562 -10.296875 8.3125 -9.765625 C 8.644531 -9.242188 8.8125 -8.664062 8.8125 -8.03125 L 7.3125 -8.03125 C 7.3125 -8.71875 7.09375 -9.253906 6.65625 -9.640625 C 6.226562 -10.035156 5.617188 -10.234375 4.828125 -10.234375 C 4.085938 -10.234375 3.507812 -10.070312 3.09375 -9.75 C 2.6875 -9.425781 2.484375 -8.976562 2.484375 -8.40625 C 2.484375 -7.945312 2.675781 -7.554688 3.0625 -7.234375 C 3.457031 -6.910156 4.125 -6.617188 5.0625 -6.359375 C 6.007812 -6.097656 6.742188 -5.804688 7.265625 -5.484375 C 7.796875 -5.171875 8.191406 -4.800781 8.453125 -4.375 C 8.710938 -3.945312 8.84375 -3.445312 8.84375 -2.875 C 8.84375 -1.957031 8.484375 -1.222656 7.765625 -0.671875 C 7.046875 -0.117188 6.09375 0.15625 4.90625 0.15625 C 4.125 0.15625 3.394531 0.0078125 2.71875 -0.28125 C 2.050781 -0.582031 1.535156 -0.992188 1.171875 -1.515625 C 0.804688 -2.035156 0.625 -2.625 0.625 -3.28125 L 2.125 -3.28125 C 2.125 -2.59375 2.375 -2.050781 2.875 -1.65625 C 3.382812 -1.257812 4.0625 -1.0625 4.90625 -1.0625 C 5.6875 -1.0625 6.285156 -1.222656 6.703125 -1.546875 C 7.128906 -1.867188 7.34375 -2.304688 7.34375 -2.859375 C 7.34375 -3.410156 7.144531 -3.835938 6.75 -4.140625 C 6.363281 -4.441406 5.660156 -4.742188 4.640625 -5.046875 Z M 4.640625 -5.046875 "/></g></g></g><g fill="#ffffff" fill-opacity="1"><g transform="translate(275.667609, 276.870995)"><g><path d="M 9.125 -10.078125 L 5.484375 -10.078125 L 5.484375 0 L 4 0 L 4 -10.078125 L 0.375 -10.078125 L 0.375 -11.3125 L 9.125 -11.3125 Z M 9.125 -10.078125 "/></g></g></g><g fill="#ffffff" fill-opacity="1"><g transform="translate(288.869447, 276.870995)"><g><path d="M 7.5625 -2.953125 L 2.8125 -2.953125 L 1.75 0 L 0.21875 0 L 4.53125 -11.3125 L 5.84375 -11.3125 L 10.171875 0 L 8.640625 0 Z M 3.265625 -4.171875 L 7.109375 -4.171875 L 5.1875 -9.46875 Z M 3.265625 -4.171875 "/></g></g></g><g fill="#ffffff" fill-opacity="1"><g transform="translate(302.956901, 276.870995)"><g><path d="M 9.625 -3.59375 C 9.488281 -2.394531 9.046875 -1.46875 8.296875 -0.8125 C 7.554688 -0.164062 6.570312 0.15625 5.34375 0.15625 C 4.007812 0.15625 2.9375 -0.320312 2.125 -1.28125 C 1.320312 -2.238281 0.921875 -3.519531 0.921875 -5.125 L 0.921875 -6.21875 C 0.921875 -7.269531 1.109375 -8.191406 1.484375 -8.984375 C 1.859375 -9.785156 2.390625 -10.398438 3.078125 -10.828125 C 3.765625 -11.253906 4.5625 -11.46875 5.46875 -11.46875 C 6.675781 -11.46875 7.640625 -11.128906 8.359375 -10.453125 C 9.085938 -9.785156 9.507812 -8.859375 9.625 -7.671875 L 8.125 -7.671875 C 8 -8.578125 7.71875 -9.226562 7.28125 -9.625 C 6.851562 -10.03125 6.25 -10.234375 5.46875 -10.234375 C 4.519531 -10.234375 3.773438 -9.878906 3.234375 -9.171875 C 2.691406 -8.472656 2.421875 -7.472656 2.421875 -6.171875 L 2.421875 -5.078125 C 2.421875 -3.847656 2.675781 -2.867188 3.1875 -2.140625 C 3.707031 -1.421875 4.425781 -1.0625 5.34375 -1.0625 C 6.175781 -1.0625 6.8125 -1.25 7.25 -1.625 C 7.695312 -2 7.988281 -2.65625 8.125 -3.59375 Z M 9.625 -3.59375 "/></g></g></g><g fill="#ffffff" fill-opacity="1"><g transform="translate(317.02105, 276.870995)"><g><path d="M 4.1875 -5.265625 L 2.796875 -3.828125 L 2.796875 0 L 1.3125 0 L 1.3125 -11.3125 L 2.796875 -11.3125 L 2.796875 -5.71875 L 7.828125 -11.3125 L 9.625 -11.3125 L 5.1875 -6.3125 L 9.984375 0 L 8.1875 0 Z M 4.1875 -5.265625 "/></g></g></g></svg>