<svg xmlns="http://www.w3.org/2000/svg" xmlns:xlink="http://www.w3.org/1999/xlink" width="500" zoomAndPan="magnify" viewBox="0 0 375 374.999991" height="500" preserveAspectRatio="xMidYMid meet" version="1.0"><defs><g/><clipPath id="9b83d6d36b"><path d="M 69 156 L 375 156 L 375 260.523438 L 69 260.523438 Z M 69 156 " clip-rule="nonzero"/></clipPath><clipPath id="2d1fbf9c7e"><path d="M 0 59.59375 L 306 59.59375 L 306 165 L 0 165 Z M 0 59.59375 " clip-rule="nonzero"/></clipPath></defs><rect x="-37.5" width="450" fill="#ffffff" y="-37.499999" height="449.999989" fill-opacity="1"/><rect x="-37.5" width="450" fill="#ffffff" y="-37.499999" height="449.999989" fill-opacity="1"/><rect x="-37.5" width="450" fill="#000000" y="-37.499999" height="449.999989" fill-opacity="1"/><g clip-path="url(#9b83d6d36b)"><path fill="#ffffff" d="M 183.617188 225.730469 C 138.765625 225.730469 98.257812 198.398438 69.382812 171.691406 C 93.183594 200.859375 149.960938 260.496094 216.214844 260.496094 C 303.910156 260.496094 375 156 375 156 L 313.683594 156 C 284.960938 186.402344 237.414062 225.730469 183.617188 225.730469 " fill-opacity="1" fill-rule="nonzero"/></g><g clip-path="url(#2d1fbf9c7e)"><path fill="#ffffff" d="M 191.382812 94.320312 C 236.238281 94.320312 276.742188 121.652344 305.621094 148.359375 C 281.8125 119.191406 225.039062 59.554688 158.785156 59.554688 C 71.089844 59.554688 0 164.046875 0 164.046875 L 61.316406 164.046875 C 90.039062 133.644531 137.585938 94.320312 191.382812 94.320312 " fill-opacity="1" fill-rule="nonzero"/></g><path fill="#ffffff" d="M 207.601562 114.394531 C 211.171875 117.671875 213.414062 122.371094 213.414062 127.597656 C 213.414062 137.492188 205.378906 145.511719 195.472656 145.511719 C 185.5625 145.511719 177.527344 137.492188 177.527344 127.597656 C 177.527344 117.699219 185.5625 109.679688 195.472656 109.679688 C 195.683594 109.679688 195.890625 109.6875 196.105469 109.691406 C 191.667969 108.472656 187 107.816406 182.179688 107.816406 C 153.285156 107.816406 129.863281 131.210938 129.863281 160.066406 C 129.863281 188.921875 153.285156 212.3125 182.179688 212.3125 C 211.074219 212.3125 234.496094 188.921875 234.496094 160.066406 C 234.496094 140.425781 223.644531 123.320312 207.601562 114.394531 " fill-opacity="1" fill-rule="nonzero"/><g fill="#000000" fill-opacity="1"><g transform="translate(61.107976, 141.732058)"><g><path d="M 19.71875 -13.671875 L 15.515625 -10.75 L 4.796875 -19.8125 L 9.484375 -6.5625 L 5.25 -3.640625 L -11.1875 -16.09375 L -6.796875 -19.125 L 4.546875 -9.46875 L -0.578125 -23.4375 L 3.4375 -26.21875 L 14.796875 -16.5625 L 9.703125 -30.5625 L 13.890625 -33.46875 Z M 19.71875 -13.671875 "/></g></g></g><g fill="#000000" fill-opacity="1"><g transform="translate(87.155176, 123.678851)"><g><path d="M 5.28125 -22.75 L -3.234375 -16.84375 L -1.015625 -13.640625 L 6.671875 -18.96875 L 8.90625 -15.75 L 1.21875 -10.421875 L 3.46875 -7.171875 L 12.234375 -13.25 L 14.46875 -10.03125 L 1.609375 -1.109375 L -9.546875 -17.21875 L 3.0625 -25.96875 Z M 5.28125 -22.75 "/></g></g></g><g fill="#000000" fill-opacity="1"><g transform="translate(103.837407, 112.116466)"><g><path d="M -9.546875 -17.21875 L -1.921875 -22.515625 C -0.117188 -23.765625 1.566406 -24.394531 3.140625 -24.40625 C 4.710938 -24.414062 5.921875 -23.804688 6.765625 -22.578125 C 7.347656 -21.734375 7.613281 -20.820312 7.5625 -19.84375 C 7.507812 -18.863281 7.140625 -17.957031 6.453125 -17.125 C 7.597656 -17.625 8.722656 -17.710938 9.828125 -17.390625 C 10.941406 -17.066406 11.863281 -16.382812 12.59375 -15.34375 C 13.539062 -13.976562 13.738281 -12.503906 13.1875 -10.921875 C 12.632812 -9.347656 11.40625 -7.90625 9.5 -6.59375 L 1.609375 -1.109375 Z M -3.3125 -16.921875 L -1.015625 -13.609375 L 2.296875 -15.90625 C 2.898438 -16.320312 3.269531 -16.800781 3.40625 -17.34375 C 3.550781 -17.882812 3.445312 -18.414062 3.09375 -18.9375 C 2.738281 -19.445312 2.285156 -19.722656 1.734375 -19.765625 C 1.179688 -19.816406 0.601562 -19.632812 0 -19.21875 Z M 1.03125 -10.65625 L 3.5 -7.09375 L 6.8125 -9.390625 C 7.570312 -9.921875 8.054688 -10.5 8.265625 -11.125 C 8.484375 -11.75 8.398438 -12.34375 8.015625 -12.90625 C 7.640625 -13.445312 7.125 -13.722656 6.46875 -13.734375 C 5.8125 -13.742188 5.101562 -13.484375 4.34375 -12.953125 Z M 1.03125 -10.65625 "/></g></g></g><g fill="#000000" fill-opacity="1"><g transform="translate(244.044812, 248.216094)"><g><path d="M 5.609375 -22.671875 L -3 -16.890625 L -0.828125 -13.65625 L 6.9375 -18.875 L 9.125 -15.625 L 1.359375 -10.40625 L 3.5625 -7.125 L 12.421875 -13.078125 L 14.609375 -9.828125 L 1.625 -1.09375 L -9.3125 -17.359375 L 3.421875 -25.921875 Z M 5.609375 -22.671875 "/></g></g></g><g fill="#000000" fill-opacity="1"><g transform="translate(260.887106, 236.888133)"><g><path d="M 3.484375 -10.84375 L -2.65625 -6.71875 L -4.359375 -9.25 L 1.78125 -13.375 Z M 3.484375 -10.84375 "/></g></g></g><g fill="#000000" fill-opacity="1"><g transform="translate(270.760245, 230.247558)"><g><path d="M -1.78125 -22.625 C -0.570312 -23.4375 0.78125 -23.984375 2.28125 -24.265625 C 3.789062 -24.554688 5.234375 -24.566406 6.609375 -24.296875 L 6.125 -19.84375 C 5.15625 -20.132812 4.175781 -20.222656 3.1875 -20.109375 C 2.195312 -19.992188 1.34375 -19.691406 0.625 -19.203125 C -0.664062 -18.335938 -1.441406 -17.160156 -1.703125 -15.671875 C -1.960938 -14.179688 -1.644531 -12.769531 -0.75 -11.4375 C 0.164062 -10.082031 1.363281 -9.238281 2.84375 -8.90625 C 4.332031 -8.570312 5.722656 -8.835938 7.015625 -9.703125 C 7.679688 -10.160156 8.269531 -10.804688 8.78125 -11.640625 C 9.289062 -12.472656 9.632812 -13.378906 9.8125 -14.359375 L 13.9375 -13.421875 C 13.664062 -11.929688 13.109375 -10.507812 12.265625 -9.15625 C 11.429688 -7.8125 10.421875 -6.738281 9.234375 -5.9375 C 6.785156 -4.289062 4.210938 -3.71875 1.515625 -4.21875 C -1.179688 -4.726562 -3.332031 -6.175781 -4.9375 -8.5625 C -6.507812 -10.894531 -7 -13.40625 -6.40625 -16.09375 C -5.8125 -18.78125 -4.269531 -20.957031 -1.78125 -22.625 Z M -1.78125 -22.625 "/></g></g></g><g fill="#000000" fill-opacity="1"><g transform="translate(288.020687, 218.638355)"><g><path d="M -1.703125 -22.6875 C 0.828125 -24.382812 3.457031 -25.007812 6.1875 -24.5625 C 8.925781 -24.113281 11.085938 -22.710938 12.671875 -20.359375 C 14.265625 -17.992188 14.753906 -15.445312 14.140625 -12.71875 C 13.535156 -9.988281 11.976562 -7.78125 9.46875 -6.09375 C 6.957031 -4.40625 4.332031 -3.789062 1.59375 -4.25 C -1.144531 -4.71875 -3.316406 -6.144531 -4.921875 -8.53125 C -6.515625 -10.894531 -7 -13.421875 -6.375 -16.109375 C -5.757812 -18.804688 -4.203125 -21 -1.703125 -22.6875 Z M 0.6875 -19.25 C -0.582031 -18.394531 -1.359375 -17.203125 -1.640625 -15.671875 C -1.921875 -14.148438 -1.601562 -12.707031 -0.6875 -11.34375 C 0.226562 -9.988281 1.453125 -9.144531 2.984375 -8.8125 C 4.523438 -8.488281 5.921875 -8.75 7.171875 -9.59375 C 8.429688 -10.4375 9.1875 -11.617188 9.4375 -13.140625 C 9.6875 -14.671875 9.351562 -16.113281 8.4375 -17.46875 C 7.519531 -18.832031 6.3125 -19.679688 4.8125 -20.015625 C 3.3125 -20.347656 1.9375 -20.09375 0.6875 -19.25 Z M 0.6875 -19.25 "/></g></g></g><g fill="#000000" fill-opacity="1"><g transform="translate(307.90618, 205.26357)"><g><path d="M 19.484375 -13.109375 L 15.84375 -10.65625 L 8.703125 -21.203125 L 10.828125 -9.640625 L 8.125 -7.828125 L -1.796875 -14.140625 L 5.3125 -3.578125 L 1.625 -1.09375 L -9.328125 -17.375 L -4.796875 -20.421875 L 6.125 -13.703125 L 4.03125 -26.359375 L 8.53125 -29.390625 Z M 19.484375 -13.109375 "/></g></g></g></svg>